ply
format ascii 1.0
element vertex 517
property float x
property float y
property float z
property uchar red
property uchar green
property uchar blue
end_header
-1.06319 0.747815 15.1125 116 146 195
0.692306 1.58015 15.8302 2 3 3
-3.41864 -0.938043 14.6805 2 2 3
6.66724 0.812553 17.0025 111 139 186
-2.07537 1.41019 14.9168 118 148 198
-1.231 -1.91596 15.1441 114 143 190
-0.990036 1.38957 15.0848 113 141 189
-3.25515 -0.196404 14.6679 13 16 22
6.5306 -2.07591 17.0612 108 136 181
3.36138 0.716063 16.5515 103 129 172
0.29098 -1.01334 15.5568 6 8 11
6.15612 1.51857 16.8393 15 20 27
8.23221 -1.09257 17.332 5 8 10
0.507524 2.90509 8.98952 28 23 16
3.56869 1.40856 16.4329 14 18 24
-1.0488 2.86208 10.4987 0 0 0
5.25489 3.20135 12.2253 0 0 0
1.25825 2.94527 9.03904 228 194 137
5.50569 1.54007 16.7813 114 143 191
4.16658 -2.07115 16.5655 111 139 185
3.37465 3.06863 11.7344 204 173 123
0.520572 -1.80867 15.8836 96 121 161
1.21375 2.91427 11.9482 220 187 132
0.145814 1.62838 15.585 117 146 195
1.01083 2.96965 8.96396 226 193 136
-2.40301 2.73009 8.05733 2 2 1
-3.36309 1.87484 14.6416 100 125 167
-2.51651 2.76078 10.196 207 176 124
-4.58745 2.65793 13.167 195 165 117
0.3634 -1.40936 15.5422 96 120 160
-0.215028 2.69899 15.2882 30 38 51
-2.50585 2.77969 9.49275 19 16 10
0.219429 2.91646 10.7743 224 190 134
1.16566 2.94168 10.5011 10 9 6
4.52411 3.19809 10.6798 12 10 7
3.97353 3.14229 12.5217 208 177 124
-2.10841 2.80856 10.8 212 180 127
2.12717 3.03892 9.92596 220 187 132
1.46338 2.90941 13.7662 1 1 0
7.04989 0.533545 17.2884 2 3 5
-2.35769 1.01814 14.9355 100 125 167
-1.49612 -0.897342 15.1903 87 109 146
-3.99917 2.682 13.1939 21 18 12
-2.31674 2.78144 9.10111 231 197 139
0.163189 2.93322 11.5768 219 185 131
3.66543 3.09371 10.5636 228 193 137
-2.83869 2.71849 10.2096 201 171 121
5.66287 -2.74224 16.55 33 42 55
-0.836301 2.8306 9.56675 223 189 133
-4.08509 2.74458 10.7147 71 61 43
3.41485 3.06808 10.9204 18 16 10
7.68722 2.95042 17.2593 28 36 48
1.69233 3.01882 10.3087 213 181 127
1.71374 -1.6857 15.9016 113 141 188
-1.29702 2.78841 8.75071 222 188 132
-2.64757 2.75179 8.78287 125 106 75
-1.62158 2.74575 8.80206 12 11 7
4.77179 3.21952 12.9903 24 20 14
1.42542 1.44837 16.007 84 105 141
2.91057 3.00998 11.7099 199 170 120
-4.32999 -0.0589321 14.3559 103 128 171
2.64571 3.05147 11.592 207 176 124
4.96785 3.23085 10.5575 215 183 128
-0.286121 2.88919 11.468 111 94 66
-1.44266 2.79825 13.0171 80 68 48
3.68465 3.15363 9.65759 39 34 23
-2.06918 2.76883 9.20159 215 183 129
-5.49668 1.30085 13.9582 83 104 138
-1.075 2.80496 8.72247 32 27 19
5.48903 3.03124 12.4113 183 155 110
4.00321 3.09835 10.5845 38 32 22
-0.0271039 2.93346 9.12977 9 7 5
2.98052 3.07534 9.93394 36 31 22
-2.79534 2.68271 8.28393 36 31 22
3.89916 2.93157 14.4238 16 13 9
-4.3035 1.13486 14.3429 108 135 180
1.01686 3.01077 9.84209 21 18 12
1.15786 2.98656 10.1405 63 53 37
-0.938638 2.83835 12.0189 213 181 128
2.00005 2.89312 16.1948 28 36 48
1.39322 2.93903 10.6095 22 18 13
4.10212 -1.44952 16.6195 20 25 33
-0.611627 2.90602 11.5281 190 161 114
3.01042 3.13846 10.4616 43 37 26
-4.92665 0.654968 14.3287 112 140 188
-2.00698 2.79105 9.58851 48 40 29
1.56727 -3.70669 15.9194 22 27 37
-0.0286869 2.91398 9.53961 165 140 98
0.39682 2.89726 12.651 48 40 29
-0.577149 -2.06332 15.3786 36 46 62
-2.86955 2.74185 8.79078 44 37 26
0.091215 2.83704 14.5007 24 20 14
0.203441 2.94622 12.9856 116 98 69
0.35659 2.92793 9.88282 20 16 11
0.545905 2.92891 9.66846 180 153 107
0.562261 2.85722 14.3862 196 166 117
4.35548 3.16127 14.5141 26 22 15
1.93459 2.97847 11.6765 194 164 116
2.03857 3.06715 9.30938 25 21 14
4.9507 3.19706 12.1351 3 2 1
-2.51323 2.74015 11.0184 159 135 95
8.19971 -1.87072 17.3786 88 110 147
-4.12983 0.0080579 14.3618 43 54 72
2.0163 3.01583 10.7448 188 159 112
6.3377 3.10427 14.8017 197 168 118
-5.63076 2.60847 13.9137 85 107 143
2.16887 3.06253 11.5592 103 87 62
4.3103 3.09675 13.3912 205 174 123
-4.13072 2.7268 12.4698 66 56 39
-5.61019 2.47885 13.9167 70 88 118
5.61905 -1.14231 16.6522 75 94 126
1.67893 3.01191 11.3005 142 121 85
-5.69641 -1.24374 13.9665 36 46 61
3.13137 3.10797 10.0152 7 5 3
0.541681 -0.564275 1.90463 90 112 151
-3.86052 2.66371 13.7278 189 161 113
3.51253 3.10401 10.6496 196 166 117
-2.62847 2.81674 10.8539 39 34 23
1.6989 3.01694 10.8598 62 53 37
0.935033 -1.7694 15.7581 78 98 131
2.80694 2.97701 13.2054 126 107 75
-3.93789 2.72747 12.4759 74 63 44
-4.10095 1.13766 14.6604 86 107 144
-2.09841 -1.98189 14.9183 44 55 74
4.63619 2.3644 16.3051 74 93 124
-2.36012 -0.814573 14.9496 99 123 165
3.3148 3.04499 12.6237 152 129 91
-5.63029 0.616316 13.9639 34 43 58
-4.74975 -0.103495 14.3366 8 10 14
3.0562 2.9894 13.1309 150 127 89
-2.08972 2.87293 13.115 95 81 56
2.78309 3.04057 11.2651 180 152 107
0.375447 2.94232 9.58952 92 78 55
2.42207 2.89782 15.1965 31 26 19
1.20731 2.95904 9.65615 118 100 71
-2.26389 -0.222524 14.9325 69 87 116
-0.57782 2.87728 9.50725 128 109 77
1.08027 0.850571 15.7237 2 2 3
-2.75108 2.75631 12.6694 109 92 64
5.04985 3.11317 11.1034 104 89 62
-3.30161 2.69262 13.4591 84 71 50
3.83341 3.142 10.4345 140 119 84
-1.27261 2.81593 9.36772 119 101 71
-2.53011 2.66942 11.4017 140 119 83
-0.800978 -2.00558 14.5003 5 7 9
0.712158 1.48836 14.783 2 3 3
7.60073 0.108316 16.1297 3 3 4
-3.62173 -2.30776 14.0505 109 137 183
3.34845 -2.42134 15.3741 109 138 183
6.11794 -1.93968 15.82 111 139 185
4.61549 0.867141 16.0038 2 3 3
7.86742 -0.707412 16.4173 8 10 14
3.19814 0.673329 15.4396 105 131 175
-3.75046 0.613194 13.9147 104 131 174
-4.7105 -2.34632 13.9718 10 13 17
6.44226 -3.40505 16.0061 5 6 9
-1.61867 -0.82888 14.5633 3 3 5
-3.55331 1.2333 13.909 14 18 25
-3.52205 -3.18754 14.0822 3 4 6
-1.45821 -0.249746 14.5456 106 133 177
7.95542 -1.81047 16.2312 16 20 27
-0.924958 2.7073 9.8836 0 0 0
1.33057 -0.546477 2.16311 8 10 14
0.223688 -2.5744 14.9723 12 16 22
0.0614639 -2.2495 14.9964 34 42 57
2.07351 -1.70238 15.5139 18 22 30
4.24761 -4.86927 15.6673 111 138 184
0.54799 -1.71092 14.89 97 122 163
-2.02632 -3.83671 14.3595 3 3 4
0.184919 1.57065 14.8868 118 148 197
7.60881 1.66035 16.1403 112 140 187
1.00469 -1.97573 15.1275 91 114 152
1.61419 -0.858991 15.2889 109 136 182
7.05565 -0.552081 16.0949 3 4 6
-4.0798 -1.17046 13.9814 2 2 3
7.58161 0.423249 16.1996 114 143 191
1.9794 -0.851982 15.169 11 15 19
5.45594 -2.64429 15.8359 33 43 57
-1.39027 -0.871822 14.5445 88 110 148
1.53583 -0.564576 2.13643 113 141 189
-1.32522 -1.46125 14.5579 99 124 165
1.73905 -0.519159 2.10293 98 123 164
-4.84264 -1.57666 13.921 17 22 29
0.821622 0.571144 15.1176 114 143 191
0.408794 -4.23162 14.9377 29 37 50
-5.22784 -3.32386 13.6683 22 27 36
4.48908 -2.24632 15.5764 97 122 162
-1.49172 -3.60758 14.612 119 149 199
-3.29213 0.0243237 13.9759 109 137 183
-0.813819 0.169771 14.4345 21 26 35
1.02782 -2.47824 15.1175 91 115 153
1.39609 1.36706 14.9511 85 107 143
-2.31124 -1.78617 14.6305 21 26 35
1.44564 -0.57219 2.14997 111 139 186
-5.24914 1.25801 13.4356 83 104 139
-2.21482 -1.32452 14.6063 113 142 189
-2.83743 0.0885138 13.9845 103 129 173
-4.38196 -1.62286 13.9712 109 136 181
-4.10362 -1.40788 13.9871 108 136 181
1.23744 2.79249 14.9802 68 58 40
1.9346 2.72582 15.1409 29 37 49
5.91944 -0.9346 16.0143 85 107 143
-3.62667 2.56792 11.7059 67 57 39
1.9322 -4.53312 15.1833 28 36 49
3.88869 -1.36686 15.5129 20 25 34
0.247682 -1.67446 14.9568 95 119 160
-4.6032 0.617995 13.5574 113 141 188
1.28236 -0.535129 2.16925 24 31 41
-4.89871 -3.76726 14.0043 11 14 19
-0.611261 -3.70285 14.8121 100 125 167
0.138518 1.86705 14.8967 96 120 160
1.21232 -1.31613 15.0636 38 47 63
-5.17529 -3.85776 13.6954 16 19 26
6.03308 -2.87961 15.8541 35 45 60
1.11183 -0.638009 2.19219 84 105 140
-2.58491 -4.39087 14.1064 93 116 156
0.935558 -1.71337 15.1354 79 99 132
0.508466 2.7413 14.8004 143 121 85
-3.42045 0.131728 13.968 14 18 24
-3.83038 1.08328 13.894 87 108 145
3.08475 -2.8149 15.4912 29 37 50
-0.841073 -2.50136 14.8249 42 52 69
4.95904 -0.82802 15.7514 98 122 163
-3.68396 0.891268 13.9106 88 110 147
-3.95152 2.47165 13.8096 106 132 176
1.28201 0.633131 15.0024 40 51 68
1.16923 -2.85075 15.4945 0 0 0
1.74801 -1.98364 15.6823 0 0 0
-0.468261 0.12877 15.4513 3 4 4
-1.53934 -2.17448 15.2876 5 7 9
3.37358 -1.02131 15.8461 2 2 4
-0.299925 -0.715212 15.4341 8 11 15
8.01159 1.69542 16.46 2 3 3
-4.06193 -0.19702 15.0485 13 16 22
-0.324605 -1.06244 15.4439 6 8 11
7.58351 -0.725449 16.4079 8 11 14
-1.63244 1.473 15.2564 116 145 194
5.88445 -2.07113 16.2471 115 145 193
2.94006 -2.61968 16.0483 113 142 189
1.14636 -1.73522 15.4837 118 147 196
5.31702 -0.910401 16.1235 3 4 5
1.72451 -2.6237 15.6924 11 13 18
-4.03475 -4.13203 15.0723 8 10 14
1.60704 -0.648996 15.6998 17 22 29
-4.01462 -2.81387 15.0696 3 3 4
-4.64327 1.37742 15.01 15 18 25
4.19806 2.91348 10.4549 0 0 0
-1.72886 2.87582 10.0107 0 0 0
-4.55356 -3.50883 15.0603 3 4 6
0.938395 2.86333 10.9314 70 59 41
1.583 -3.29575 15.7321 11 14 19
-1.53745 -4.31215 15.2976 119 150 200
-2.98632 0.163911 15.354 15 18 24
2.64024 0.177551 15.7219 20 25 34
5.09206 -4.57371 16.3227 11 15 20
-4.59341 -4.41344 15.0518 3 3 4
5.98609 2.08536 16.055 111 139 185
-4.41413 0.906318 15.0316 39 50 66
0.957621 -3.86366 15.911 23 29 38
2.02845 -4.335 15.6171 96 120 161
1.67688 -2.95421 15.7179 91 115 153
4.75267 -0.485432 15.9931 113 142 188
4.46581 2.92043 10.6873 5 4 2
4.6049 -1.97133 16.0993 21 26 36
2.58476 2.90099 10.4604 214 181 128
0.234317 2.82929 9.30159 0 0 0
0.985357 2.88513 9.26595 220 187 131
6.92363 3.00363 13.8245 1 1 0
0.536686 0.86354 15.2483 2 2 4
-0.787722 2.79344 15.1206 31 39 53
1.05573 -0.915641 15.8538 111 140 186
0.505091 2.85075 9.61007 11 9 6
-4.92242 -3.34887 15.0347 84 106 141
0.247404 2.86233 9.08917 5 4 2
6.98653 2.94531 16.272 30 38 51
-2.19025 -0.949472 15.3301 89 112 150
-3.12656 2.88491 11.5386 108 92 65
-3.687 -2.994 15.0789 13 17 23
0.561153 2.92393 11.3393 227 193 136
5.56566 2.94711 10.5925 226 191 135
3.78269 2.95632 11.2407 25 21 15
7.02581 -5.03562 16.4707 30 38 51
5.03427 2.94128 11.4478 20 17 12
2.60344 2.90941 9.71306 19 16 11
-5.17673 -1.26763 15.0023 2 2 3
-0.277526 -4.17059 15.4665 106 133 177
-4.4836 -1.68036 15.0485 6 7 10
1.00619 0.416219 15.4841 107 133 178
-4.97005 0.17049 15.0063 19 24 33
0.747298 2.96006 11.8461 216 184 130
4.131 -2.3985 15.9312 100 126 168
-4.48106 1.69895 15.0161 118 148 198
3.14518 1.77367 15.8819 121 152 203
3.81878 2.96784 13.4496 73 62 44
5.57474 3.01807 11.5539 221 187 132
0.84081 2.87703 10.6253 5 4 2
-2.18313 2.89257 10.7165 25 21 15
-2.79036 2.85918 10.4513 215 183 128
4.09983 3.0116 15.8136 196 166 117
0.143048 2.82637 9.5518 26 23 15
2.7533 2.89835 11.8973 114 97 68
-0.461646 2.90849 10.1378 230 195 138
-0.49163 2.90522 10.8583 225 190 134
-3.49632 -2.32607 15.0688 99 125 166
5.15864 2.97566 13.3461 197 167 118
-4.34276 0.032597 15.0384 110 138 184
0.404493 -2.11151 15.6637 93 117 156
3.47228 3.00724 13.0442 27 23 16
-0.834949 2.89914 12.7487 199 169 119
0.865149 1.4681 15.4962 88 110 146
4.45178 2.99743 10.2807 29 24 17
-1.56165 0.195385 15.2648 21 26 36
4.26701 3.07583 13.8784 207 176 124
2.07508 -1.80619 15.577 113 142 189
1.89589 2.94872 10.5123 108 92 65
6.23748 2.13028 16.3772 94 118 158
-5.31487 -0.0597871 14.9829 103 129 173
4.69078 -1.46048 16.0493 115 144 192
0.722377 2.88457 9.8138 23 19 13
2.38549 -1.57585 15.8405 113 141 188
4.0798 2.16822 15.8468 15 19 25
0.480183 2.86652 9.15603 5 4 2
-0.17868 2.90232 12.6583 24 20 14
1.43071 2.84886 15.3321 29 38 51
-4.13276 -1.40291 15.0576 20 26 34
-5.26638 1.23983 14.9712 109 136 182
3.41019 2.92528 9.67895 72 61 43
4.38495 2.99219 12.3295 218 185 131
-1.51653 -2.49669 15.2924 0 0 0
-0.372876 -1.81519 15.4578 97 121 163
0.706489 2.92422 15.1497 53 45 31
1.84859 2.90607 14.5354 33 28 19
-3.2329 2.93427 15.0149 188 160 113
1.63151 0.724095 15.6673 118 147 197
4.65112 3.00157 12.7184 184 156 110
-1.1791 -2.14223 15.2487 38 47 63
-1.03425 -0.75492 15.2154 121 151 202
6.82444 -0.805478 16.5444 118 147 197
1.13223 2.9452 12.1774 172 145 103
-0.88639 2.87239 9.81037 211 179 126
0.85007 2.92905 13.1506 68 58 41
0.954121 -4.84522 15.9553 102 128 171
1.05653 2.95872 13.3275 88 75 53
2.52496 0.0154357 15.766 45 57 75
-1.48538 2.35329 15.2251 23 29 39
0.997045 2.87006 10.1494 143 122 86
0.853198 2.93186 12.6663 62 53 37
-2.7391 2.88733 10.8798 101 86 61
3.12014 2.9762 11.7425 171 145 102
-2.04422 -4.72946 15.3465 22 27 36
5.77606 2.96251 12.5877 49 41 29
4.09941 2.82508 15.8115 96 120 161
5.78493 -4.9079 16.3449 22 27 36
-3.77655 2.87193 12.6935 212 181 127
7.51907 -1.84876 16.5017 94 118 158
5.07749 2.92436 10.2829 209 178 125
1.07576 -4.3511 15.5183 16 20 28
-0.216456 2.89779 12.0339 50 42 29
3.19982 3.03965 15.3963 11 9 6
2.35025 2.97247 11.0532 119 102 71
-0.847871 2.8331 8.92478 150 127 90
1.70231 1.14066 15.6433 103 129 172
1.29912 2.8896 9.68093 195 165 116
0.717248 -4.92128 15.6208 75 94 126
2.57446 2.9449 11.5334 160 136 96
2.13596 3.01272 12.5385 133 112 79
3.05923 2.97668 13.7975 216 183 130
-3.51526 2.75564 15.0169 95 119 159
-5.08525 0.00937115 14.9997 44 55 73
0.981312 -1.30202 15.5154 105 131 175
2.23139 2.89778 9.55116 191 162 114
1.63989 2.9322 14.0255 105 89 63
2.07265 2.98609 15.1184 109 92 65
1.26504 0.768896 15.4217 34 42 57
-2.5283 -0.173688 15.3423 25 32 42
1.16121 2.94549 12.5969 73 62 43
-3.97432 2.89362 12.6886 32 27 19
4.6824 2.81381 10.9879 223 189 133
4.72828 2.98412 14.6656 166 141 99
2.04556 2.91369 10.1571 187 159 112
7.08271 3.07922 13.6295 78 66 46
-0.421116 -5.18548 15.4916 3 4 7
2.22181 -0.210309 2.43269 101 126 169
4.72183 2.9996 15.9131 16 21 28
5.50872 3.0195 14.9746 24 20 14
-4.96701 -2.91136 15.0252 29 37 50
5.50574 2.95616 10.1936 32 26 19
-1.39408 -0.804023 15.2583 29 36 48
2.47843 -4.95766 15.8357 108 135 180
1.75631 2.96031 13.1481 188 159 113
0.7205 0.697592 15.549 40 50 66
-0.487221 2.88175 9.65005 32 26 19
3.92708 3.00713 12.5822 116 99 69
0.886194 -4.36775 15.5619 44 56 74
-2.45616 2.90295 11.5266 214 181 128
4.58204 2.98734 14.0397 68 58 40
4.13591 2.9629 11.0763 104 89 63
-0.883403 -1.37417 15.5341 47 59 79
1.67991 2.83286 15.6137 87 109 146
1.84341 -1.84805 14.3731 0 0 0
5.92378 0.785943 15.6636 120 151 201
3.51439 -0.203804 15.0105 14 17 23
2.75806 0.63794 14.7962 109 137 183
-2.13119 1.28066 13.4334 121 152 203
-3.1792 -0.213068 13.2452 13 16 22
6.68015 -0.564145 15.7313 4 4 7
5.71943 -1.99797 15.4264 117 147 196
3.04635 -0.685281 2.76291 16 21 28
2.95019 1.30349 14.7462 15 19 26
-3.59796 1.15328 13.0469 15 18 25
2.36952 -0.883609 14.8851 118 149 198
-1.02823 2.56687 9.26057 5 4 2
-0.111889 2.59315 9.16654 231 195 138
2.65129 0.147484 14.8121 20 25 34
1.62849 -1.69676 14.6664 18 23 31
1.39372 2.71852 9.15065 196 166 117
1.0217 2.72919 10.4913 74 62 44
5.03328 -2.68012 15.3296 35 45 60
-0.470123 2.544 13.8809 31 39 53
-3.23553 1.71276 13.1349 101 127 169
-2.52857 -1.4887 13.465 31 38 52
4.01146 2.87689 11.8865 2 1 0
4.34564 -1.60891 15.1789 31 39 53
6.59523 2.25029 15.7208 121 151 202
0.980612 2.72605 12.3463 69 58 41
3.28598 -0.647032 2.73513 96 120 161
3.12177 -1.62844 14.8072 6 8 10
6.79506 2.81302 15.5655 31 39 52
1.59076 -0.862282 14.3641 12 15 20
2.08104 0.0689293 14.5925 40 51 67
1.51346 2.68336 14.4912 30 38 51
0.749813 2.67316 10.4779 229 194 137
2.7564 2.8018 11.527 121 103 73
3.75294 2.86599 10.9133 25 21 15
-1.32743 2.52999 10.3799 2 1 0
0.924169 2.7061 10.9255 218 186 131
5.51826 2.9647 11.3312 225 191 134
3.11947 1.61737 14.7227 123 154 206
4.01449 2.80711 14.8159 199 169 119
-3.47059 1.43103 13.0751 118 148 198
0.48093 2.7002 12.1252 4 3 2
2.19358 2.75822 11.5794 11 9 7
0.675813 -2.2272 14.4083 119 149 199
0.95542 2.71263 10.0728 5 4 2
5.0798 2.87909 12.9238 200 170 120
-3.39323 -0.0151842 13.176 110 138 184
2.5265 2.79633 11.5428 214 182 128
-1.99318 2.60804 11.2253 27 23 16
2.10794 -1.7628 14.9297 115 144 191
-0.441083 2.57719 11.4845 200 170 120
3.46144 2.95894 12.8256 28 23 16
4.13641 2.78609 12.7156 119 101 71
1.12474 -1.24325 14.3822 106 132 177
1.02419 1.32737 14.3121 88 111 148
-3.11202 2.48165 12.3783 32 27 19
2.41276 -1.51851 14.8986 114 143 191
-1.97086 2.54649 11.7972 16 14 10
2.83118 -0.683743 2.78462 97 122 162
0.859454 2.69746 9.2423 23 19 14
3.45167 -1.39177 15.0557 21 27 36
-1.54866 2.56269 11.6912 118 101 71
-0.15806 2.60459 9.86701 226 191 135
-0.524574 2.56799 9.94695 146 125 88
1.2308 -0.865488 14.3751 112 141 188
3.41535 -0.646813 2.72053 91 113 151
5.40629 2.90908 14.4355 25 20 15
-2.99353 0.0461953 13.2866 104 131 175
-0.504943 2.57141 8.90584 211 180 126
1.91068 2.72356 13.6841 33 28 20
1.14805 0.357198 14.3448 108 134 179
3.1098 2.86523 11.3082 171 145 102
1.71857 0.651473 14.5887 119 149 199
7.70329 3.00933 14.6948 9 7 4
-2.48494 2.55015 13.2827 189 161 113
3.78396 2.86769 12.9993 87 74 52
0.883341 2.67887 13.9716 69 59 41
3.60204 -2.19564 15.0402 88 110 147
1.22472 2.67221 12.1569 78 66 46
-0.924743 2.62895 10.0144 133 112 79
-2.02227 -1.03765 13.5463 80 100 134
-2.90938 2.48592 12.6734 24 20 14
4.39338 2.89612 9.93772 29 25 17
5.74763 2.94235 12.4709 50 42 29
2.59148 2.76841 10.8791 164 139 98
0.827134 -1.33039 14.3849 39 49 65
7.30732 -1.80156 15.8036 96 120 161
2.37896 2.79688 10.4598 124 105 74
-2.70857 2.38504 13.2322 95 119 160
3.16714 2.76979 14.0984 106 90 64
2.9564 -0.695016 2.77568 20 26 35
1.76583 2.60925 14.5145 88 110 148
1.804 1.00714 14.3006 104 131 174
0.0151957 2.67027 11.1937 50 42 30
0.664274 0.430635 14.3214 115 144 192
1.35303 0.696336 14.6 34 42 57
6.68108 3.00393 15.6228 69 59 42
1.28119 2.73274 11.7649 76 65 45
3.7816 2.84162 10.0367 32 27 19
-1.71166 2.29186 13.463 16 20 27
2.82194 0.935737 14.787 92 116 155
1.71353 2.73483 13.2103 9 7 5
2.65022 1.15228 14.8054 91 113 152
6.32985 2.94243 12.7174 40 33 23
4.49062 -0.859167 15.1281 103 128 172
4.64544 2.87912 15.3076 17 21 29
4.30583 2.87533 12.2423 36 30 22
1.51494 2.72333 9.83008 47 39 27
6.75624 3.05269 11.8127 52 44 31
0.0636146 2.65818 11.7173 24 20 14
0.317231 -0.61907 14.3613 118 148 197
0.897223 0.618227 14.3221 39 49 65
2.44774 2.82299 13.654 36 31 22
2.55292 2.78775 10.5904 85 72 50
-0.141031 2.57467 8.74716 32 27 19
-1.98724 -0.887103 13.5607 27 34 46
-1.76364 2.50678 10.1457 214 181 128
0.685718 0.786293 14.3155 2 2 4
